<svg xmlns="http://www.w3.org/2000/svg" width="22.333" height="25.523" viewBox="0 0 22.333 25.523">
  <path id="Icon_awesome-calculator" data-name="Icon awesome-calculator" d="M19.94,0H2.393A2.453,2.453,0,0,0,0,2.393V23.13a2.453,2.453,0,0,0,2.393,2.393H19.94a2.453,2.453,0,0,0,2.393-2.393V2.393A2.453,2.453,0,0,0,19.94,0ZM6.381,21.695a.686.686,0,0,1-.638.638H3.828a.686.686,0,0,1-.638-.638V19.78a.686.686,0,0,1,.638-.638H5.743a.686.686,0,0,1,.638.638Zm0-6.381a.686.686,0,0,1-.638.638H3.828a.686.686,0,0,1-.638-.638V13.4a.686.686,0,0,1,.638-.638H5.743a.686.686,0,0,1,.638.638Zm6.381,6.381a.686.686,0,0,1-.638.638H10.209a.686.686,0,0,1-.638-.638V19.78a.686.686,0,0,1,.638-.638h1.914a.686.686,0,0,1,.638.638Zm0-6.381a.686.686,0,0,1-.638.638H10.209a.686.686,0,0,1-.638-.638V13.4a.686.686,0,0,1,.638-.638h1.914a.686.686,0,0,1,.638.638Zm6.381,6.381a.686.686,0,0,1-.638.638H16.59a.686.686,0,0,1-.638-.638V13.4a.686.686,0,0,1,.638-.638H18.5a.686.686,0,0,1,.638.638Zm0-12.761a.686.686,0,0,1-.638.638H3.828a.686.686,0,0,1-.638-.638v-5.1a.686.686,0,0,1,.638-.638H18.5a.686.686,0,0,1,.638.638Z" fill="#d3d800"/>
</svg>
