<svg xmlns="http://www.w3.org/2000/svg" width="16.188" height="18.5" viewBox="0 0 16.188 18.5">
  <path id="Icon_awesome-calculator" data-name="Icon awesome-calculator" d="M14.453,0H1.734A1.778,1.778,0,0,0,0,1.734V16.766A1.778,1.778,0,0,0,1.734,18.5H14.453a1.778,1.778,0,0,0,1.734-1.734V1.734A1.778,1.778,0,0,0,14.453,0ZM4.625,15.725a.5.5,0,0,1-.462.463H2.775a.5.5,0,0,1-.462-.463V14.337a.5.5,0,0,1,.462-.462H4.163a.5.5,0,0,1,.462.462Zm0-4.625a.5.5,0,0,1-.462.463H2.775a.5.5,0,0,1-.462-.463V9.712a.5.5,0,0,1,.462-.462H4.163a.5.5,0,0,1,.462.462ZM9.25,15.725a.5.5,0,0,1-.463.463H7.4a.5.5,0,0,1-.462-.463V14.337a.5.5,0,0,1,.462-.462H8.787a.5.5,0,0,1,.463.462Zm0-4.625a.5.5,0,0,1-.463.463H7.4a.5.5,0,0,1-.462-.463V9.712A.5.5,0,0,1,7.4,9.25H8.787a.5.5,0,0,1,.463.462Zm4.625,4.625a.5.5,0,0,1-.463.463H12.025a.5.5,0,0,1-.462-.463V9.712a.5.5,0,0,1,.462-.462h1.387a.5.5,0,0,1,.463.462Zm0-9.25a.5.5,0,0,1-.463.462H2.775a.5.5,0,0,1-.462-.462v-3.7a.5.5,0,0,1,.462-.462H13.412a.5.5,0,0,1,.463.462Z" fill="#79c0cd"/>
</svg>
