<svg xmlns="http://www.w3.org/2000/svg" width="18.5" height="18.5" viewBox="0 0 18.5 18.5">
  <path id="Icon_awesome-phone" data-name="Icon awesome-phone" d="M17.827.888,14.069.021a.873.873,0,0,0-.994.5L11.341,4.57a.865.865,0,0,0,.249,1.012l2.19,1.792a13.391,13.391,0,0,1-6.4,6.4l-1.792-2.19a.866.866,0,0,0-1.012-.249L.527,13.072a.878.878,0,0,0-.506,1l.867,3.758a.867.867,0,0,0,.845.672A16.763,16.763,0,0,0,18.5,1.734.866.866,0,0,0,17.827.888Z" transform="translate(0.001 0.001)" fill="#79c0cd"/>
</svg>
