<svg xmlns="http://www.w3.org/2000/svg" xmlns:xlink="http://www.w3.org/1999/xlink" width="193.649" height="45.359" viewBox="0 0 193.649 45.359">
  <defs>
    <linearGradient id="linear-gradient" x1="0.553" y1="-0.43" x2="0" y2="0.5" gradientUnits="objectBoundingBox">
      <stop offset="0" stop-color="#4433eb"/>
      <stop offset="0.182" stop-color="#be0998"/>
      <stop offset="0.429" stop-color="#ff056b"/>
      <stop offset="1" stop-color="#fed472"/>
    </linearGradient>
  </defs>
  <path id="パス_4" data-name="パス 4" d="M-76.735-28.648V5.087h-5.091V-28.648Zm7.167,12.454h4.938v1.966a8.058,8.058,0,0,1,5.812-2.556,7.34,7.34,0,0,1,5.79,2.338q1.792,1.988,1.792,6.489V5.087h-4.938V-6.8q0-3.146-.874-4.348a3.526,3.526,0,0,0-3.1-1.224,3.794,3.794,0,0,0-3.474,1.617q-1.005,1.595-1.005,5.572V5.087h-4.938Zm36.9,3.627L-36.729-10.4q-.961-1.966-2.382-1.966a1.638,1.638,0,0,0-1.158.448,1.5,1.5,0,0,0-.481,1.147q0,1.224,2.84,2.425a16.933,16.933,0,0,1,5.266,3.1,5.31,5.31,0,0,1,1.355,3.824,6.7,6.7,0,0,1-2.272,5.156A7.734,7.734,0,0,1-38.893,5.7q-5.353,0-7.582-5.222l4.2-1.945A9.126,9.126,0,0,0-40.946.477a3.041,3.041,0,0,0,2.141.83q2.491,0,2.491-2.272,0-1.311-1.923-2.447-.743-.371-1.486-.721t-1.508-.721a9.228,9.228,0,0,1-3.015-2.1,5.167,5.167,0,0,1-1.114-3.43,6.07,6.07,0,0,1,1.9-4.588,6.668,6.668,0,0,1,4.719-1.813Q-34.654-16.784-32.666-12.567Zm10.859.961V5.087h-4.916V-11.606h-2.1v-4.588h2.1v-7.8h4.916v7.8h3.824v4.588ZM1.441-16.194H6.379V5.087H1.441V2.858A9.429,9.429,0,0,1-5.092,5.7a9.412,9.412,0,0,1-7.3-3.19,11.863,11.863,0,0,1-2.862-8.128,11.5,11.5,0,0,1,2.862-7.975,9.226,9.226,0,0,1,7.167-3.19,9.05,9.05,0,0,1,6.664,3.059ZM-10.226-5.619A7.412,7.412,0,0,0-8.588-.638,5.367,5.367,0,0,0-4.349,1.307,5.642,5.642,0,0,0,.065-.572,7.277,7.277,0,0,0,1.747-5.51,7.277,7.277,0,0,0,.065-10.448a5.562,5.562,0,0,0-4.37-1.9,5.435,5.435,0,0,0-4.239,1.923A7.088,7.088,0,0,0-10.226-5.619Zm43.392,10.2q0,1.508-.1,2.655a18.446,18.446,0,0,1-.273,2.021,9,9,0,0,1-2.054,4.129A9.954,9.954,0,0,1,22.81,16.71,10.586,10.586,0,0,1,15.8,14.416a9.378,9.378,0,0,1-3.277-6.533h4.938a5.592,5.592,0,0,0,.94,2.425A5.281,5.281,0,0,0,22.853,12.3q5.4,0,5.4-6.62V2.705A9.18,9.18,0,0,1,21.5,5.7a9.067,9.067,0,0,1-7.123-3.146,11.66,11.66,0,0,1-2.8-7.975,12.277,12.277,0,0,1,2.6-7.909,9.036,9.036,0,0,1,7.385-3.452,8.577,8.577,0,0,1,6.686,2.993v-2.4h4.916ZM28.447-5.51a7.164,7.164,0,0,0-1.661-4.96,5.49,5.49,0,0,0-4.3-1.9A5.292,5.292,0,0,0,18.068-10.3,7.534,7.534,0,0,0,16.6-5.488,7.462,7.462,0,0,0,18.068-.725a5.3,5.3,0,0,0,4.414,2.032A5.4,5.4,0,0,0,26.939-.747,7.315,7.315,0,0,0,28.447-5.51ZM39.371-16.194h4.916v1.9a9.388,9.388,0,0,1,2.4-1.945,5.512,5.512,0,0,1,2.535-.546,7.94,7.94,0,0,1,4.064,1.267l-2.25,4.5a4.694,4.694,0,0,0-2.731-1.005q-4.02,0-4.02,6.074V5.087H39.371Zm32.118,0h4.938V5.087H71.489V2.858A9.429,9.429,0,0,1,64.957,5.7a9.412,9.412,0,0,1-7.3-3.19A11.863,11.863,0,0,1,54.8-5.619a11.5,11.5,0,0,1,2.862-7.975,9.226,9.226,0,0,1,7.167-3.19,9.05,9.05,0,0,1,6.664,3.059ZM59.822-5.619A7.412,7.412,0,0,0,61.461-.638,5.367,5.367,0,0,0,65.7,1.307,5.642,5.642,0,0,0,70.113-.572,7.277,7.277,0,0,0,71.8-5.51a7.277,7.277,0,0,0-1.682-4.938,5.562,5.562,0,0,0-4.37-1.9A5.435,5.435,0,0,0,61.5-10.426,7.088,7.088,0,0,0,59.822-5.619ZM82.633-16.194h4.916v1.966a10.272,10.272,0,0,1,2.425-2.01,5.884,5.884,0,0,1,2.687-.546,6.523,6.523,0,0,1,5.7,3.146,7.382,7.382,0,0,1,6.271-3.146q7.188,0,7.188,8.718V5.087h-4.938V-6.734a9.119,9.119,0,0,0-.743-4.326,2.693,2.693,0,0,0-2.513-1.289,3.205,3.205,0,0,0-2.961,1.529A9.849,9.849,0,0,0,99.74-5.9V5.087H94.8V-6.668q0-5.681-3.277-5.681A3.285,3.285,0,0,0,88.5-10.8a9.674,9.674,0,0,0-.95,4.894V5.087H82.633Z" transform="translate(81.826 28.648)" fill="url(#linear-gradient)"/>
</svg>
